<svg id="Layer_1" data-name="Layer 1" xmlns="http://www.w3.org/2000/svg" viewBox="0 0 112.25 113.85"><defs><style>.cls-1{fill:#231f20;}.cls-1,.cls-2{fill-rule:evenodd;}.cls-2{fill:#fff;}</style></defs><polygon class="cls-1" points="0 0 113.85 0 113.85 113.85 0 113.85 0 0 0 0"/><path class="cls-2" d="M56.92,72.36A25.77,25.77,0,0,1,44,75.78,26.42,26.42,0,0,1,21.24,62.66s0,0,0-.07,0,0,0-.07l3.72-1.94,3.72-1.89a.73.73,0,0,1,.11.15A18,18,0,0,0,44,67.4a18.85,18.85,0,0,0,5.87-1A25.88,25.88,0,0,1,43.51,49.4a26.14,26.14,0,0,1,6.31-17.06,17.77,17.77,0,0,0-5.8-1A18.07,18.07,0,0,0,28.5,40.32a.13.13,0,0,0,0,.11L21,36.57a.79.79,0,0,1,.11-.19A26.41,26.41,0,0,1,44,23a25.4,25.4,0,0,1,12.9,3.47A25.47,25.47,0,0,1,69.83,23,26.41,26.41,0,0,1,92.75,36.38a.79.79,0,0,1,.11.19l-7.47,3.86a.13.13,0,0,0,0-.11,18.06,18.06,0,0,0-15.52-8.93,17.77,17.77,0,0,0-5.8,1A26.14,26.14,0,0,1,70.34,49.4,25.88,25.88,0,0,1,64,66.45a18.8,18.8,0,0,0,5.87,1,18,18,0,0,0,15.3-8.56.73.73,0,0,1,.11-.15L89,60.58l3.72,1.94s0,0,0,.07,0,0,0,.07A26.42,26.42,0,0,1,69.83,75.78a25.84,25.84,0,0,1-12.91-3.42Zm0-10.46a18.26,18.26,0,0,1-5-12.5,17.57,17.57,0,0,1,5-12.36A17.5,17.5,0,0,1,62,49.4a18.23,18.23,0,0,1-5,12.5Z"/><path class="cls-2" d="M31.55,87.8a.59.59,0,0,0,0,.08,5.44,5.44,0,0,1-4.79,2.93,5.61,5.61,0,0,1,0-11.21,5.44,5.44,0,0,1,4.8,3,.39.39,0,0,1,.06.11S29.84,84,29.82,83.92s0-.06,0-.08a3.23,3.23,0,0,0-3.07-2.06,3.43,3.43,0,0,0,0,6.86,3.35,3.35,0,0,0,3-2,1.17,1.17,0,0,1,.05-.11l1.76,1.25Z"/><polygon class="cls-2" points="33.81 79.7 35.91 79.7 35.91 83.61 41.42 83.61 41.42 79.7 43.53 79.7 43.53 90.59 41.42 90.59 41.42 85.81 35.91 85.81 35.91 90.59 33.81 90.59 33.81 79.7 33.81 79.7 33.81 79.7"/><polygon class="cls-2" points="73.16 90.59 73.16 79.7 80.78 79.7 80.78 81.9 75.28 81.9 75.28 84.08 80.36 84.08 80.36 86.25 75.28 86.25 75.28 88.43 81.55 88.43 81.55 90.59 73.16 90.59 73.16 90.59"/><polygon class="cls-2" points="84.53 90.59 84.53 79.7 86.66 79.7 86.66 88.43 92.58 88.43 92.58 90.59 84.53 90.59 84.53 90.59 84.53 90.59"/><polygon class="cls-2" points="61.71 90.59 61.64 90.59 59.57 90.59 59.57 79.7 59.73 79.7 62.53 79.7 67.2 86.25 67.2 79.7 69.32 79.7 69.32 90.59 67.63 90.59 61.71 82.38 61.71 90.59 61.71 90.59 61.71 90.59"/><path class="cls-2" d="M51.55,81.9l-1.86,4.35h3.8L51.55,81.9Zm-2.82,6.53-1,2.16H45.23L50.06,79.7H53l4.87,10.89H55.35l-1-2.16Z"/></svg>